<svg xmlns="http://www.w3.org/2000/svg" xmlns:xlink="http://www.w3.org/1999/xlink" width="250" zoomAndPan="magnify" viewBox="0 0 187.5 67.499998" height="90" preserveAspectRatio="xMidYMid meet" version="1.0"><defs><g/><clipPath id="id1"><path d="M 113 42 L 126 42 L 126 67.003906 L 113 67.003906 Z M 113 42 " clip-rule="nonzero"/></clipPath></defs><g fill="#ef0454" fill-opacity="1"><g transform="translate(6.321333, 51.098831)"><g><path d="M 79.90625 -15.625 C 79.320312 -15.570312 78.734375 -15.519531 78.140625 -15.46875 C 77.609375 -15.414062 77.066406 -15.367188 76.515625 -15.328125 C 72.578125 -14.910156 68.65625 -14.378906 64.75 -13.734375 C 60.269531 -13.023438 55.796875 -12.175781 51.328125 -11.1875 C 50.546875 -11.019531 49.828125 -10.707031 49.171875 -10.25 C 43.835938 -6.707031 38.335938 -3.515625 32.671875 -0.671875 C 27.015625 2.160156 21.207031 4.695312 15.25 6.9375 C 12.65625 7.945312 10.007812 8.800781 7.3125 9.5 C 6.070312 9.820312 4.804688 10.023438 3.515625 10.109375 C 3.347656 10.128906 3.179688 10.140625 3.015625 10.140625 C 2.429688 10.160156 1.878906 10.066406 1.359375 9.859375 C 0.535156 9.503906 0.285156 8.910156 0.609375 8.078125 C 0.867188 7.484375 1.242188 6.957031 1.734375 6.5 C 2.703125 5.550781 3.769531 4.738281 4.9375 4.0625 C 7.820312 2.363281 10.8125 0.867188 13.90625 -0.421875 C 16.957031 -1.742188 20.050781 -2.957031 23.1875 -4.0625 C 23.28125 -4.070312 23.359375 -4.097656 23.421875 -4.140625 C 23.523438 -4.191406 23.640625 -4.234375 23.765625 -4.265625 C 24.210938 -4.398438 24.515625 -4.707031 24.671875 -5.1875 C 24.941406 -5.894531 25.222656 -6.597656 25.515625 -7.296875 C 25.566406 -7.421875 25.617188 -7.550781 25.671875 -7.6875 C 26.304688 -9.269531 26.957031 -10.867188 27.625 -12.484375 C 28.863281 -15.523438 30.101562 -18.570312 31.34375 -21.625 C 32.15625 -23.550781 32.8125 -25.53125 33.3125 -27.5625 C 33.34375 -27.75 33.398438 -27.9375 33.484375 -28.125 C 33.640625 -28.34375 33.84375 -28.421875 34.09375 -28.359375 C 34.195312 -28.390625 34.3125 -28.390625 34.4375 -28.359375 C 34.53125 -28.335938 34.609375 -28.289062 34.671875 -28.21875 C 34.742188 -28.15625 34.78125 -28.070312 34.78125 -27.96875 C 34.800781 -27.664062 34.785156 -27.367188 34.734375 -27.078125 C 34.359375 -25.285156 33.804688 -23.539062 33.078125 -21.84375 C 31.816406 -18.78125 30.550781 -15.71875 29.28125 -12.65625 C 28.769531 -11.394531 28.253906 -10.132812 27.734375 -8.875 C 27.628906 -8.632812 27.53125 -8.394531 27.4375 -8.15625 C 27.125 -7.394531 26.804688 -6.625 26.484375 -5.84375 C 26.460938 -5.8125 26.453125 -5.789062 26.453125 -5.78125 C 26.398438 -5.6875 26.367188 -5.601562 26.359375 -5.53125 C 26.359375 -5.457031 26.398438 -5.382812 26.484375 -5.3125 C 26.492188 -5.300781 26.519531 -5.285156 26.5625 -5.265625 C 26.59375 -5.285156 26.632812 -5.300781 26.6875 -5.3125 C 26.707031 -5.3125 26.722656 -5.3125 26.734375 -5.3125 C 27.535156 -5.5625 28.328125 -5.816406 29.109375 -6.078125 C 30.492188 -6.535156 31.875 -6.988281 33.25 -7.4375 C 38.144531 -8.9375 43.078125 -10.25 48.046875 -11.375 C 48.648438 -11.507812 49.191406 -11.742188 49.671875 -12.078125 C 51.085938 -13.085938 52.476562 -14.117188 53.84375 -15.171875 C 55.207031 -16.222656 56.519531 -17.332031 57.78125 -18.5 C 59.15625 -19.738281 60.398438 -21.109375 61.515625 -22.609375 C 62.179688 -23.472656 62.679688 -24.425781 63.015625 -25.46875 C 63.484375 -27.082031 63.1875 -28.503906 62.125 -29.734375 C 61.738281 -30.191406 61.300781 -30.582031 60.8125 -30.90625 C 60.332031 -31.226562 59.820312 -31.507812 59.28125 -31.75 C 57.425781 -32.539062 55.5 -33.050781 53.5 -33.28125 C 51.75 -33.488281 50 -33.59375 48.25 -33.59375 C 46.65625 -33.59375 45.0625 -33.53125 43.46875 -33.40625 C 39.375 -33.082031 35.320312 -32.457031 31.3125 -31.53125 C 28.582031 -30.9375 25.90625 -30.195312 23.28125 -29.3125 C 20.65625 -28.4375 18.109375 -27.328125 15.640625 -25.984375 C 14.722656 -25.515625 13.832031 -25 12.96875 -24.4375 C 12.113281 -23.875 11.296875 -23.265625 10.515625 -22.609375 C 9.921875 -22.054688 9.367188 -21.476562 8.859375 -20.875 C 8.484375 -20.457031 8.210938 -19.976562 8.046875 -19.4375 C 7.773438 -18.601562 7.957031 -17.890625 8.59375 -17.296875 C 8.976562 -16.929688 9.425781 -16.65625 9.9375 -16.46875 C 10.800781 -16.101562 11.695312 -15.890625 12.625 -15.828125 C 13.125 -15.796875 13.625 -15.769531 14.125 -15.75 C 14.8125 -15.71875 15.492188 -15.679688 16.171875 -15.640625 C 16.710938 -15.609375 17.25 -15.5625 17.78125 -15.5 C 17.84375 -15.476562 17.898438 -15.441406 17.953125 -15.390625 C 18.003906 -15.347656 18.046875 -15.289062 18.078125 -15.21875 C 18.085938 -15.082031 18.050781 -14.992188 17.96875 -14.953125 C 17.882812 -14.910156 17.800781 -14.894531 17.71875 -14.90625 L 17.5625 -14.90625 C 17.519531 -14.90625 17.472656 -14.90625 17.421875 -14.90625 C 16.921875 -14.925781 16.4375 -14.9375 15.96875 -14.9375 C 15.8125 -14.9375 15.660156 -14.9375 15.515625 -14.9375 C 15.273438 -14.9375 15.023438 -14.9375 14.765625 -14.9375 L 14.75 -14.9375 C 14.050781 -14.9375 13.363281 -14.953125 12.6875 -14.984375 C 12.007812 -15.015625 11.328125 -15.101562 10.640625 -15.25 C 9.878906 -15.414062 9.140625 -15.664062 8.421875 -16 C 8.035156 -16.1875 7.675781 -16.414062 7.34375 -16.6875 C 6.320312 -17.539062 6.066406 -18.601562 6.578125 -19.875 C 6.929688 -20.707031 7.441406 -21.441406 8.109375 -22.078125 C 8.960938 -22.960938 9.910156 -23.765625 10.953125 -24.484375 C 13.765625 -26.421875 16.757812 -27.984375 19.9375 -29.171875 C 22.5 -30.148438 25.097656 -30.972656 27.734375 -31.640625 C 30.378906 -32.316406 33.050781 -32.878906 35.75 -33.328125 C 39.90625 -34.054688 44.09375 -34.425781 48.3125 -34.4375 C 48.4375 -34.4375 48.570312 -34.4375 48.71875 -34.4375 C 50.3125 -34.4375 51.898438 -34.351562 53.484375 -34.1875 C 55.066406 -34.03125 56.632812 -33.734375 58.1875 -33.296875 C 59.457031 -32.941406 60.660156 -32.429688 61.796875 -31.765625 C 62.390625 -31.410156 62.925781 -30.988281 63.40625 -30.5 C 64.96875 -28.875 65.34375 -26.972656 64.53125 -24.796875 C 64.15625 -23.828125 63.644531 -22.925781 63 -22.09375 C 61.8125 -20.53125 60.488281 -19.09375 59.03125 -17.78125 C 57.25 -16.175781 55.390625 -14.660156 53.453125 -13.234375 C 53.390625 -13.179688 53.316406 -13.132812 53.234375 -13.09375 C 53.140625 -13.03125 53.039062 -12.957031 52.9375 -12.875 C 52.832031 -12.789062 52.765625 -12.671875 52.734375 -12.515625 C 52.796875 -12.460938 52.859375 -12.4375 52.921875 -12.4375 C 53.003906 -12.457031 53.085938 -12.472656 53.171875 -12.484375 C 53.253906 -12.523438 53.335938 -12.550781 53.421875 -12.5625 C 58.429688 -13.582031 63.457031 -14.425781 68.5 -15.09375 C 70.925781 -15.394531 73.34375 -15.671875 75.75 -15.921875 C 76.582031 -16.003906 77.410156 -16.09375 78.234375 -16.1875 C 78.515625 -16.21875 78.8125 -16.234375 79.125 -16.234375 C 79.40625 -16.253906 79.6875 -16.226562 79.96875 -16.15625 C 80.007812 -16.144531 80.046875 -16.113281 80.078125 -16.0625 C 80.117188 -16.019531 80.140625 -15.984375 80.140625 -15.953125 C 80.148438 -15.847656 80.128906 -15.769531 80.078125 -15.71875 C 80.035156 -15.664062 79.976562 -15.632812 79.90625 -15.625 Z M 22.125 2.96875 C 22.125 2.96875 22.132812 2.96875 22.15625 2.96875 C 22.28125 2.90625 22.394531 2.832031 22.5 2.75 C 22.601562 2.664062 22.675781 2.550781 22.71875 2.40625 C 22.675781 2.40625 22.648438 2.40625 22.640625 2.40625 C 22.296875 2.425781 22.078125 2.382812 21.984375 2.28125 C 21.890625 2.175781 21.890625 1.976562 21.984375 1.6875 C 22.023438 1.5 22.085938 1.316406 22.171875 1.140625 C 22.191406 1.078125 22.210938 1.03125 22.234375 1 C 22.367188 0.664062 22.492188 0.335938 22.609375 0.015625 C 22.910156 -0.722656 23.203125 -1.460938 23.484375 -2.203125 C 23.492188 -2.234375 23.515625 -2.28125 23.546875 -2.34375 C 23.609375 -2.457031 23.644531 -2.566406 23.65625 -2.671875 C 23.675781 -2.785156 23.648438 -2.898438 23.578125 -3.015625 C 23.554688 -3.015625 23.539062 -3.015625 23.53125 -3.015625 C 23.445312 -3.003906 23.367188 -2.976562 23.296875 -2.9375 C 23.253906 -2.925781 23.210938 -2.910156 23.171875 -2.890625 C 21.015625 -2.109375 18.882812 -1.285156 16.78125 -0.421875 C 14.675781 0.441406 12.597656 1.382812 10.546875 2.40625 C 8.878906 3.195312 7.265625 4.085938 5.703125 5.078125 C 4.804688 5.617188 3.984375 6.265625 3.234375 7.015625 C 2.828125 7.378906 2.519531 7.828125 2.3125 8.359375 C 2.25 8.523438 2.253906 8.6875 2.328125 8.84375 C 2.398438 9 2.535156 9.101562 2.734375 9.15625 C 2.953125 9.21875 3.179688 9.25 3.421875 9.25 C 3.671875 9.25 3.921875 9.222656 4.171875 9.171875 C 5.816406 8.878906 7.445312 8.472656 9.0625 7.953125 C 12.5625 6.828125 16.007812 5.550781 19.40625 4.125 C 20.320312 3.757812 21.226562 3.375 22.125 2.96875 Z M 45.6875 -9.4375 C 45.695312 -9.46875 45.722656 -9.492188 45.765625 -9.515625 C 45.828125 -9.546875 45.875 -9.585938 45.90625 -9.640625 C 45.9375 -9.691406 45.929688 -9.769531 45.890625 -9.875 C 45.804688 -9.851562 45.707031 -9.828125 45.59375 -9.796875 C 45.03125 -9.640625 44.46875 -9.492188 43.90625 -9.359375 C 42.351562 -8.953125 40.816406 -8.535156 39.296875 -8.109375 C 35.046875 -6.921875 30.835938 -5.609375 26.671875 -4.171875 C 26.304688 -4.054688 26 -3.894531 25.75 -3.6875 C 25.507812 -3.476562 25.335938 -3.1875 25.234375 -2.8125 C 25.171875 -2.625 25.097656 -2.4375 25.015625 -2.25 C 24.960938 -2.164062 24.921875 -2.082031 24.890625 -2 C 24.773438 -1.75 24.601562 -1.394531 24.375 -0.9375 C 24.132812 -0.476562 23.894531 0.00390625 23.65625 0.515625 C 23.414062 1.023438 23.25 1.460938 23.15625 1.828125 C 23.0625 2.191406 23.101562 2.398438 23.28125 2.453125 C 23.519531 2.398438 23.738281 2.304688 23.9375 2.171875 C 24.03125 2.117188 24.132812 2.070312 24.25 2.03125 C 28.84375 0.0078125 33.335938 -2.234375 37.734375 -4.703125 C 39.484375 -5.703125 41.210938 -6.71875 42.921875 -7.75 C 43.671875 -8.21875 44.421875 -8.671875 45.171875 -9.109375 C 45.191406 -9.117188 45.207031 -9.125 45.21875 -9.125 C 45.382812 -9.21875 45.539062 -9.320312 45.6875 -9.4375 Z M 45.6875 -9.4375 "/></g></g></g><g fill="#ef0454" fill-opacity="1"><g transform="translate(57.580886, 51.098831)"><g><path d="M 6.59375 -4.4375 C 6.144531 -4 5.625 -3.625 5.03125 -3.3125 C 4.4375 -3 3.9375 -2.796875 3.53125 -2.703125 C 3.132812 -2.609375 2.722656 -2.550781 2.296875 -2.53125 C 1.617188 -2.5 0.992188 -2.59375 0.421875 -2.8125 C -0.503906 -3.1875 -0.828125 -3.910156 -0.546875 -4.984375 C -0.273438 -5.898438 0.269531 -6.613281 1.09375 -7.125 C 1.925781 -7.644531 2.78125 -7.894531 3.65625 -7.875 C 3.65625 -7.875 3.664062 -7.875 3.6875 -7.875 C 3.90625 -7.894531 4.113281 -7.878906 4.3125 -7.828125 C 4.65625 -7.710938 4.875 -7.515625 4.96875 -7.234375 C 5.0625 -6.953125 5 -6.644531 4.78125 -6.3125 C 4.289062 -5.5625 3.617188 -5.144531 2.765625 -5.0625 C 2.203125 -5.007812 1.660156 -5.035156 1.140625 -5.140625 C 1.035156 -5.148438 0.941406 -5.117188 0.859375 -5.046875 C 0.785156 -4.984375 0.742188 -4.898438 0.734375 -4.796875 C 0.578125 -4.140625 0.78125 -3.71875 1.34375 -3.53125 C 2.039062 -3.289062 2.757812 -3.289062 3.5 -3.53125 C 4.363281 -3.800781 5.1875 -4.3125 5.96875 -5.0625 C 6.75 -5.8125 7.195312 -6.160156 7.3125 -6.109375 C 7.4375 -6.054688 7.476562 -5.910156 7.4375 -5.671875 C 7.320312 -5.296875 7.039062 -4.882812 6.59375 -4.4375 Z M 1.671875 -6.3125 C 1.617188 -6.257812 1.582031 -6.195312 1.5625 -6.125 C 1.550781 -6.0625 1.578125 -6.003906 1.640625 -5.953125 C 1.910156 -5.796875 2.203125 -5.738281 2.515625 -5.78125 C 2.835938 -5.820312 3.109375 -5.941406 3.328125 -6.140625 C 3.546875 -6.335938 3.640625 -6.578125 3.609375 -6.859375 C 3.585938 -6.960938 3.535156 -7.023438 3.453125 -7.046875 C 3.367188 -7.078125 3.28125 -7.085938 3.1875 -7.078125 C 2.625 -6.972656 2.117188 -6.71875 1.671875 -6.3125 Z M 1.671875 -6.3125 "/></g></g></g><g fill="#ef0454" fill-opacity="1"><g transform="translate(64.529414, 51.098831)"><g><path d="M 8.390625 -5.890625 C 8.578125 -5.785156 8.59375 -5.535156 8.4375 -5.140625 C 8.21875 -4.847656 7.976562 -4.570312 7.71875 -4.3125 C 7.46875 -4.0625 7.191406 -3.835938 6.890625 -3.640625 C 6.867188 -3.640625 6.859375 -3.628906 6.859375 -3.609375 C 6.648438 -3.472656 6.4375 -3.351562 6.21875 -3.25 C 4.375 -2.582031 3.429688 -2.972656 3.390625 -4.421875 C 2.640625 -3.773438 2.140625 -3.378906 1.890625 -3.234375 C 1.273438 -2.867188 0.613281 -2.707031 -0.09375 -2.75 C -0.613281 -2.78125 -0.96875 -2.9375 -1.15625 -3.21875 C -1.351562 -3.507812 -1.335938 -3.898438 -1.109375 -4.390625 C -0.773438 -5.171875 -0.296875 -5.867188 0.328125 -6.484375 C 1.066406 -7.160156 1.882812 -7.703125 2.78125 -8.109375 C 3.257812 -8.347656 3.757812 -8.441406 4.28125 -8.390625 C 4.800781 -8.359375 5.117188 -8.0625 5.234375 -7.5 C 5.273438 -7.332031 5.234375 -7.179688 5.109375 -7.046875 C 4.929688 -6.890625 4.734375 -6.851562 4.515625 -6.9375 C 4.492188 -6.9375 4.46875 -6.941406 4.4375 -6.953125 C 4.414062 -6.960938 4.398438 -6.972656 4.390625 -6.984375 C 4.160156 -7.296875 3.929688 -7.425781 3.703125 -7.375 C 3.484375 -7.320312 3.242188 -7.222656 2.984375 -7.078125 C 1.796875 -6.378906 0.910156 -5.410156 0.328125 -4.171875 C 0.304688 -4.109375 0.289062 -4.046875 0.28125 -3.984375 C 0.269531 -3.921875 0.285156 -3.867188 0.328125 -3.828125 C 0.472656 -3.785156 0.628906 -3.796875 0.796875 -3.859375 C 0.960938 -3.921875 1.128906 -4.015625 1.296875 -4.140625 C 1.472656 -4.273438 1.617188 -4.382812 1.734375 -4.46875 C 1.753906 -4.488281 1.765625 -4.5 1.765625 -4.5 C 2.328125 -4.96875 2.878906 -5.453125 3.421875 -5.953125 C 3.648438 -6.203125 3.945312 -6.34375 4.3125 -6.375 C 4.8125 -6.375 5.019531 -6.144531 4.9375 -5.6875 C 4.894531 -5.519531 4.847656 -5.351562 4.796875 -5.1875 C 4.585938 -4.445312 4.578125 -4.015625 4.765625 -3.890625 C 4.953125 -3.765625 5.234375 -3.765625 5.609375 -3.890625 C 5.992188 -4.015625 6.378906 -4.253906 6.765625 -4.609375 C 7.148438 -4.972656 7.472656 -5.300781 7.734375 -5.59375 C 7.992188 -5.894531 8.210938 -5.992188 8.390625 -5.890625 Z M 8.390625 -5.890625 "/></g></g></g><g fill="#ef0454" fill-opacity="1"><g transform="translate(72.415313, 51.098831)"><g><path d="M 9.171875 -5.78125 C 9.296875 -5.625 9.140625 -5.335938 8.703125 -4.921875 C 8.273438 -4.515625 7.816406 -4.171875 7.328125 -3.890625 C 6.835938 -3.617188 6.273438 -3.34375 5.640625 -3.0625 C 5.210938 -2.882812 4.757812 -2.820312 4.28125 -2.875 C 3.800781 -2.9375 3.5625 -3.226562 3.5625 -3.75 C 3.5625 -4.269531 3.679688 -4.785156 3.921875 -5.296875 C 4.160156 -5.816406 4.210938 -6.082031 4.078125 -6.09375 C 3.941406 -6.113281 3.660156 -5.988281 3.234375 -5.71875 C 2.128906 -4.988281 1.101562 -4.160156 0.15625 -3.234375 C -0.09375 -2.921875 -0.414062 -2.75 -0.8125 -2.71875 C -1.007812 -2.71875 -1.164062 -2.78125 -1.28125 -2.90625 C -1.394531 -3.039062 -1.40625 -3.179688 -1.3125 -3.328125 C -0.632812 -4.578125 0.046875 -5.816406 0.734375 -7.046875 C 0.890625 -7.304688 1.125 -7.460938 1.4375 -7.515625 C 1.5625 -7.546875 1.679688 -7.507812 1.796875 -7.40625 C 1.910156 -7.300781 1.96875 -7.179688 1.96875 -7.046875 C 1.945312 -6.921875 1.894531 -6.773438 1.8125 -6.609375 C 1.78125 -6.503906 1.742188 -6.40625 1.703125 -6.3125 C 1.671875 -6.226562 1.660156 -6.15625 1.671875 -6.09375 C 1.679688 -6.03125 1.726562 -6.007812 1.8125 -6.03125 C 1.925781 -6.09375 2.046875 -6.160156 2.171875 -6.234375 C 2.460938 -6.398438 2.742188 -6.5625 3.015625 -6.71875 C 3.253906 -6.851562 3.503906 -6.972656 3.765625 -7.078125 C 4.023438 -7.191406 4.296875 -7.265625 4.578125 -7.296875 C 5.046875 -7.328125 5.375 -7.222656 5.5625 -6.984375 C 5.757812 -6.742188 5.785156 -6.414062 5.640625 -6 C 5.484375 -5.613281 5.320312 -5.226562 5.15625 -4.84375 C 4.945312 -4.488281 4.910156 -4.21875 5.046875 -4.03125 C 5.179688 -3.851562 5.828125 -4.066406 6.984375 -4.671875 L 7.84375 -5.1875 C 8.664062 -5.707031 9.109375 -5.90625 9.171875 -5.78125 Z M 9.171875 -5.78125 "/></g></g></g><g fill="#ef0454" fill-opacity="1"><g transform="translate(81.111286, 51.098831)"><g><path d="M 6.59375 -4.4375 C 6.144531 -4 5.625 -3.625 5.03125 -3.3125 C 4.4375 -3 3.9375 -2.796875 3.53125 -2.703125 C 3.132812 -2.609375 2.722656 -2.550781 2.296875 -2.53125 C 1.617188 -2.5 0.992188 -2.59375 0.421875 -2.8125 C -0.503906 -3.1875 -0.828125 -3.910156 -0.546875 -4.984375 C -0.273438 -5.898438 0.269531 -6.613281 1.09375 -7.125 C 1.925781 -7.644531 2.78125 -7.894531 3.65625 -7.875 C 3.65625 -7.875 3.664062 -7.875 3.6875 -7.875 C 3.90625 -7.894531 4.113281 -7.878906 4.3125 -7.828125 C 4.65625 -7.710938 4.875 -7.515625 4.96875 -7.234375 C 5.0625 -6.953125 5 -6.644531 4.78125 -6.3125 C 4.289062 -5.5625 3.617188 -5.144531 2.765625 -5.0625 C 2.203125 -5.007812 1.660156 -5.035156 1.140625 -5.140625 C 1.035156 -5.148438 0.941406 -5.117188 0.859375 -5.046875 C 0.785156 -4.984375 0.742188 -4.898438 0.734375 -4.796875 C 0.578125 -4.140625 0.78125 -3.71875 1.34375 -3.53125 C 2.039062 -3.289062 2.757812 -3.289062 3.5 -3.53125 C 4.363281 -3.800781 5.1875 -4.3125 5.96875 -5.0625 C 6.75 -5.8125 7.195312 -6.160156 7.3125 -6.109375 C 7.4375 -6.054688 7.476562 -5.910156 7.4375 -5.671875 C 7.320312 -5.296875 7.039062 -4.882812 6.59375 -4.4375 Z M 1.671875 -6.3125 C 1.617188 -6.257812 1.582031 -6.195312 1.5625 -6.125 C 1.550781 -6.0625 1.578125 -6.003906 1.640625 -5.953125 C 1.910156 -5.796875 2.203125 -5.738281 2.515625 -5.78125 C 2.835938 -5.820312 3.109375 -5.941406 3.328125 -6.140625 C 3.546875 -6.335938 3.640625 -6.578125 3.609375 -6.859375 C 3.585938 -6.960938 3.535156 -7.023438 3.453125 -7.046875 C 3.367188 -7.078125 3.28125 -7.085938 3.1875 -7.078125 C 2.625 -6.972656 2.117188 -6.71875 1.671875 -6.3125 Z M 1.671875 -6.3125 "/></g></g></g><g fill="#ef0454" fill-opacity="1"><g transform="translate(81.587307, 51.478725)"><g><path d="M 26 -48.359375 C 27.875 -47.429688 29.382812 -46.238281 30.53125 -44.78125 C 31.6875 -43.332031 32.492188 -41.65625 32.953125 -39.75 C 33.035156 -39.34375 33.070312 -38.921875 33.0625 -38.484375 C 33.0625 -38.378906 33.0625 -38.285156 33.0625 -38.203125 C 33.0625 -37.859375 32.882812 -37.617188 32.53125 -37.484375 C 32.351562 -37.390625 32.1875 -37.363281 32.03125 -37.40625 C 31.875 -37.457031 31.769531 -37.5625 31.71875 -37.71875 C 31.632812 -38.039062 31.554688 -38.363281 31.484375 -38.6875 C 31.460938 -38.757812 31.445312 -38.835938 31.4375 -38.921875 C 30.820312 -41.359375 29.550781 -43.453125 27.625 -45.203125 C 25.082031 -47.535156 22.039062 -48.453125 18.5 -47.953125 C 15.425781 -47.503906 12.617188 -46.457031 10.078125 -44.8125 C 6.640625 -42.632812 3.789062 -39.914062 1.53125 -36.65625 C 0.851562 -35.695312 0.28125 -34.695312 -0.1875 -33.65625 C -1.75 -30.195312 -1.835938 -26.722656 -0.453125 -23.234375 C -0.00390625 -22.085938 0.539062 -21.007812 1.1875 -20 C 1.84375 -18.988281 2.550781 -18.007812 3.3125 -17.0625 C 5.019531 -14.945312 6.851562 -12.9375 8.8125 -11.03125 C 9.863281 -10.007812 10.914062 -9 11.96875 -8 C 13.46875 -6.5625 14.957031 -5.113281 16.4375 -3.65625 C 18.289062 -1.851562 19.972656 0.0703125 21.484375 2.125 C 21.972656 2.78125 22.414062 3.457031 22.8125 4.15625 C 23.21875 4.863281 23.53125 5.613281 23.75 6.40625 C 24.414062 8.519531 23.75 10.15625 21.75 11.3125 C 20.695312 11.957031 19.5625 12.34375 18.34375 12.46875 C 12.882812 12.894531 8.539062 11.066406 5.3125 6.984375 C 4.5 5.910156 3.984375 4.769531 3.765625 3.5625 C 3.554688 2.363281 3.566406 1.132812 3.796875 -0.125 C 4.296875 -2.988281 5.523438 -5.554688 7.484375 -7.828125 C 7.679688 -8.046875 7.867188 -8.265625 8.046875 -8.484375 C 8.117188 -8.585938 8.195312 -8.6875 8.28125 -8.78125 C 8.082031 -9.132812 7.84375 -9.429688 7.5625 -9.671875 C 7.476562 -9.753906 7.398438 -9.832031 7.328125 -9.90625 C 5.265625 -11.9375 3.332031 -14.0625 1.53125 -16.28125 C 0.28125 -17.8125 -0.78125 -19.453125 -1.65625 -21.203125 C -3.875 -25.660156 -3.820312 -30.097656 -1.5 -34.515625 C -0.207031 -36.847656 1.359375 -38.9375 3.203125 -40.78125 C 5.046875 -42.632812 7.132812 -44.285156 9.46875 -45.734375 C 11.75 -47.160156 14.222656 -48.195312 16.890625 -48.84375 C 17.992188 -49.101562 19.113281 -49.269531 20.25 -49.34375 C 21.382812 -49.414062 22.515625 -49.34375 23.640625 -49.125 C 24.472656 -48.96875 25.257812 -48.710938 26 -48.359375 Z M 8.859375 -7.765625 C 8.710938 -7.628906 8.578125 -7.46875 8.453125 -7.28125 C 7.597656 -6.144531 6.9375 -4.929688 6.46875 -3.640625 C 6.007812 -2.359375 5.695312 -1.023438 5.53125 0.359375 C 5.226562 3.160156 6.144531 5.546875 8.28125 7.515625 C 10.332031 9.441406 12.800781 10.632812 15.6875 11.09375 C 17.007812 11.351562 18.328125 11.316406 19.640625 10.984375 C 21.660156 10.472656 22.4375 9.265625 21.96875 7.359375 C 21.738281 6.472656 21.375 5.617188 20.875 4.796875 C 20.125 3.523438 19.257812 2.320312 18.28125 1.1875 C 17.09375 -0.238281 15.832031 -1.613281 14.5 -2.9375 C 13.175781 -4.269531 11.828125 -5.578125 10.453125 -6.859375 C 10.148438 -7.140625 9.847656 -7.425781 9.546875 -7.71875 C 9.472656 -7.789062 9.382812 -7.84375 9.28125 -7.875 C 9.238281 -7.914062 9.191406 -7.941406 9.140625 -7.953125 C 9.097656 -7.941406 9.0625 -7.921875 9.03125 -7.890625 C 8.957031 -7.859375 8.898438 -7.816406 8.859375 -7.765625 Z M 8.859375 -7.765625 "/></g></g></g><g fill="#ef0454" fill-opacity="1"><g transform="translate(103.854022, 51.478725)"><g><path d="M 10.8125 -5.8125 C 10.96875 -5.90625 11.125 -5.972656 11.28125 -6.015625 C 11.445312 -6.054688 11.550781 -6.050781 11.59375 -6 C 11.644531 -5.945312 11.582031 -5.8125 11.40625 -5.59375 C 10.832031 -4.957031 10.15625 -4.375 9.375 -3.84375 C 8.601562 -3.320312 7.816406 -2.875 7.015625 -2.5 C 6.378906 -2.21875 5.703125 -1.988281 4.984375 -1.8125 C 4.273438 -1.644531 3.570312 -1.609375 2.875 -1.703125 C 2.175781 -1.804688 1.546875 -2.117188 0.984375 -2.640625 C 0.304688 -3.316406 -0.0625 -4.175781 -0.125 -5.21875 C -0.1875 -6.269531 0.0546875 -7.15625 0.609375 -7.875 C 1.335938 -8.6875 2.257812 -9.207031 3.375 -9.4375 C 4.488281 -9.675781 5.488281 -9.503906 6.375 -8.921875 C 6.800781 -8.617188 6.972656 -8.265625 6.890625 -7.859375 C 6.816406 -7.460938 6.601562 -7.085938 6.25 -6.734375 C 5.90625 -6.390625 5.519531 -6.128906 5.09375 -5.953125 C 4.445312 -5.703125 3.867188 -5.648438 3.359375 -5.796875 C 2.859375 -5.953125 2.46875 -6.15625 2.1875 -6.40625 C 1.976562 -6.332031 1.851562 -6.046875 1.8125 -5.546875 C 1.675781 -4.617188 1.96875 -3.863281 2.6875 -3.28125 C 3.28125 -2.832031 4.023438 -2.707031 4.921875 -2.90625 C 5.816406 -3.113281 6.734375 -3.472656 7.671875 -3.984375 C 8.617188 -4.492188 9.460938 -4.976562 10.203125 -5.4375 C 10.429688 -5.5625 10.632812 -5.6875 10.8125 -5.8125 Z M 4.90625 -8.15625 C 4.800781 -8.300781 4.625 -8.359375 4.375 -8.328125 C 4.132812 -8.304688 3.882812 -8.234375 3.625 -8.109375 C 3.375 -7.992188 3.15625 -7.867188 2.96875 -7.734375 C 2.78125 -7.597656 2.695312 -7.503906 2.71875 -7.453125 C 2.71875 -7.410156 2.738281 -7.347656 2.78125 -7.265625 C 2.832031 -7.191406 2.898438 -7.109375 2.984375 -7.015625 C 3.078125 -6.929688 3.195312 -6.867188 3.34375 -6.828125 C 3.5 -6.796875 3.691406 -6.804688 3.921875 -6.859375 C 4.296875 -6.960938 4.554688 -7.097656 4.703125 -7.265625 C 4.859375 -7.441406 4.941406 -7.613281 4.953125 -7.78125 C 4.972656 -7.945312 4.957031 -8.070312 4.90625 -8.15625 Z M 4.90625 -8.15625 "/></g></g></g><g clip-path="url(#id1)"><g fill="#ef0454" fill-opacity="1"><g transform="translate(114.143118, 51.478725)"><g><path d="M 10.890625 -6.15625 C 11.023438 -6.125 11.070312 -6.019531 11.03125 -5.84375 C 11 -5.664062 10.9375 -5.46875 10.84375 -5.25 C 10.757812 -5.039062 10.679688 -4.875 10.609375 -4.75 C 10.585938 -4.707031 10.570312 -4.679688 10.5625 -4.671875 C 9.414062 -2.304688 8.484375 0.1875 7.765625 2.8125 C 7.054688 5.445312 6.488281 8.054688 6.0625 10.640625 C 5.863281 11.691406 5.6875 12.738281 5.53125 13.78125 C 5.40625 14.488281 5.28125 15.195312 5.15625 15.90625 C 5.113281 16.15625 5.054688 16.394531 4.984375 16.625 C 4.878906 17 4.613281 17.171875 4.1875 17.140625 C 3.757812 17.109375 3.53125 16.898438 3.5 16.515625 C 3.46875 16.234375 3.46875 15.941406 3.5 15.640625 C 3.507812 15.242188 3.535156 14.851562 3.578125 14.46875 C 3.753906 12.289062 3.941406 10.113281 4.140625 7.9375 C 4.316406 5.875 4.503906 3.8125 4.703125 1.75 C 4.816406 0.375 4.945312 -1 5.09375 -2.375 C 5.09375 -2.40625 5.09375 -2.429688 5.09375 -2.453125 C 5.113281 -2.546875 5.113281 -2.625 5.09375 -2.6875 C 5.082031 -2.757812 5.039062 -2.832031 4.96875 -2.90625 C 4.820312 -2.90625 4.695312 -2.875 4.59375 -2.8125 C 4.488281 -2.75 4.390625 -2.675781 4.296875 -2.59375 C 4.222656 -2.519531 4.148438 -2.453125 4.078125 -2.390625 C 3.367188 -1.867188 2.582031 -1.675781 1.71875 -1.8125 C 0.707031 -1.925781 0.0976562 -2.476562 -0.109375 -3.46875 C -0.203125 -3.90625 -0.203125 -4.335938 -0.109375 -4.765625 C 0.171875 -6.035156 0.8125 -7.070312 1.8125 -7.875 C 2.738281 -8.601562 3.757812 -8.785156 4.875 -8.421875 C 5.039062 -8.378906 5.195312 -8.328125 5.34375 -8.265625 C 5.726562 -8.109375 6.140625 -8.003906 6.578125 -7.953125 C 6.765625 -7.941406 6.90625 -7.863281 7 -7.71875 C 7.101562 -7.570312 7.15625 -7.398438 7.15625 -7.203125 C 7.15625 -6.671875 7.140625 -6.128906 7.109375 -5.578125 C 7.015625 -4.296875 6.894531 -2.691406 6.75 -0.765625 C 6.664062 0.597656 6.585938 1.75 6.515625 2.6875 C 6.734375 2.113281 7.175781 1.046875 7.84375 -0.515625 C 8.519531 -2.078125 9.191406 -3.488281 9.859375 -4.75 C 9.953125 -4.925781 10.039062 -5.097656 10.125 -5.265625 C 10.269531 -5.554688 10.398438 -5.78125 10.515625 -5.9375 C 10.628906 -6.101562 10.753906 -6.175781 10.890625 -6.15625 Z M 4.828125 -6.265625 C 4.929688 -6.503906 4.945312 -6.707031 4.875 -6.875 C 4.8125 -7.039062 4.65625 -7.210938 4.40625 -7.390625 C 4.050781 -7.679688 3.6875 -7.679688 3.3125 -7.390625 C 2.644531 -6.710938 2.195312 -5.976562 1.96875 -5.1875 C 1.738281 -4.40625 1.679688 -3.769531 1.796875 -3.28125 C 1.921875 -2.789062 2.164062 -2.664062 2.53125 -2.90625 C 2.726562 -3.050781 2.925781 -3.203125 3.125 -3.359375 C 3.53125 -3.765625 3.867188 -4.21875 4.140625 -4.71875 C 4.410156 -5.21875 4.640625 -5.734375 4.828125 -6.265625 Z M 4.828125 -6.265625 "/></g></g></g></g><g fill="#ef0454" fill-opacity="1"><g transform="translate(124.274289, 51.478725)"><g><path d="M 2.71875 -2.1875 C 2.007812 -2.195312 1.429688 -2.515625 0.984375 -3.140625 C 0.535156 -3.765625 0.253906 -4.550781 0.140625 -5.5 C 0.0234375 -6.457031 0.117188 -7.429688 0.421875 -8.421875 C 0.492188 -8.734375 0.691406 -8.957031 1.015625 -9.09375 C 1.242188 -9.164062 1.476562 -9.15625 1.71875 -9.0625 C 1.96875 -8.96875 2.097656 -8.800781 2.109375 -8.5625 C 2.109375 -8.351562 2.085938 -8.144531 2.046875 -7.9375 C 2.015625 -7.769531 1.992188 -7.613281 1.984375 -7.46875 C 1.941406 -6.882812 1.953125 -6.242188 2.015625 -5.546875 C 2.078125 -4.847656 2.257812 -4.25 2.5625 -3.75 C 2.875 -3.363281 3.210938 -3.316406 3.578125 -3.609375 C 3.953125 -3.910156 4.28125 -4.367188 4.5625 -4.984375 C 4.78125 -5.484375 4.953125 -5.976562 5.078125 -6.46875 C 5.203125 -6.957031 5.28125 -7.335938 5.3125 -7.609375 C 5.351562 -7.710938 5.375 -7.785156 5.375 -7.828125 C 5.425781 -8.035156 5.476562 -8.25 5.53125 -8.46875 C 5.613281 -8.75 5.703125 -9.03125 5.796875 -9.3125 C 5.953125 -9.863281 6.34375 -10.097656 6.96875 -10.015625 C 7.34375 -9.972656 7.550781 -9.785156 7.59375 -9.453125 C 7.625 -8.984375 7.628906 -8.519531 7.609375 -8.0625 C 7.597656 -7.863281 7.59375 -7.664062 7.59375 -7.46875 C 7.53125 -6.65625 7.507812 -5.785156 7.53125 -4.859375 C 7.550781 -3.941406 7.703125 -3.1875 7.984375 -2.59375 C 8.023438 -2.519531 8.039062 -2.410156 8.03125 -2.265625 C 8.019531 -2.117188 7.972656 -1.976562 7.890625 -1.84375 C 7.816406 -1.71875 7.6875 -1.640625 7.5 -1.609375 C 7.320312 -1.578125 7.085938 -1.648438 6.796875 -1.828125 C 6.347656 -2.117188 6.0625 -2.507812 5.9375 -3 C 5.8125 -3.488281 5.75 -3.960938 5.75 -4.421875 C 5.726562 -4.691406 5.710938 -4.925781 5.703125 -5.125 C 5.535156 -4.195312 5.164062 -3.476562 4.59375 -2.96875 C 4.019531 -2.457031 3.394531 -2.195312 2.71875 -2.1875 Z M 2.71875 -2.1875 "/></g></g></g><g fill="#ef0454" fill-opacity="1"><g transform="translate(133.385054, 51.478725)"><g><path d="M 10.8125 -5.8125 C 10.96875 -5.90625 11.125 -5.972656 11.28125 -6.015625 C 11.445312 -6.054688 11.550781 -6.050781 11.59375 -6 C 11.644531 -5.945312 11.582031 -5.8125 11.40625 -5.59375 C 10.832031 -4.957031 10.15625 -4.375 9.375 -3.84375 C 8.601562 -3.320312 7.816406 -2.875 7.015625 -2.5 C 6.378906 -2.21875 5.703125 -1.988281 4.984375 -1.8125 C 4.273438 -1.644531 3.570312 -1.609375 2.875 -1.703125 C 2.175781 -1.804688 1.546875 -2.117188 0.984375 -2.640625 C 0.304688 -3.316406 -0.0625 -4.175781 -0.125 -5.21875 C -0.1875 -6.269531 0.0546875 -7.15625 0.609375 -7.875 C 1.335938 -8.6875 2.257812 -9.207031 3.375 -9.4375 C 4.488281 -9.675781 5.488281 -9.503906 6.375 -8.921875 C 6.800781 -8.617188 6.972656 -8.265625 6.890625 -7.859375 C 6.816406 -7.460938 6.601562 -7.085938 6.25 -6.734375 C 5.90625 -6.390625 5.519531 -6.128906 5.09375 -5.953125 C 4.445312 -5.703125 3.867188 -5.648438 3.359375 -5.796875 C 2.859375 -5.953125 2.46875 -6.15625 2.1875 -6.40625 C 1.976562 -6.332031 1.851562 -6.046875 1.8125 -5.546875 C 1.675781 -4.617188 1.96875 -3.863281 2.6875 -3.28125 C 3.28125 -2.832031 4.023438 -2.707031 4.921875 -2.90625 C 5.816406 -3.113281 6.734375 -3.472656 7.671875 -3.984375 C 8.617188 -4.492188 9.460938 -4.976562 10.203125 -5.4375 C 10.429688 -5.5625 10.632812 -5.6875 10.8125 -5.8125 Z M 4.90625 -8.15625 C 4.800781 -8.300781 4.625 -8.359375 4.375 -8.328125 C 4.132812 -8.304688 3.882812 -8.234375 3.625 -8.109375 C 3.375 -7.992188 3.15625 -7.867188 2.96875 -7.734375 C 2.78125 -7.597656 2.695312 -7.503906 2.71875 -7.453125 C 2.71875 -7.410156 2.738281 -7.347656 2.78125 -7.265625 C 2.832031 -7.191406 2.898438 -7.109375 2.984375 -7.015625 C 3.078125 -6.929688 3.195312 -6.867188 3.34375 -6.828125 C 3.5 -6.796875 3.691406 -6.804688 3.921875 -6.859375 C 4.296875 -6.960938 4.554688 -7.097656 4.703125 -7.265625 C 4.859375 -7.441406 4.941406 -7.613281 4.953125 -7.78125 C 4.972656 -7.945312 4.957031 -8.070312 4.90625 -8.15625 Z M 4.90625 -8.15625 "/></g></g></g><g fill="#ef0454" fill-opacity="1"><g transform="translate(143.67415, 51.478725)"><g><path d="M 1.171875 -1.078125 C 1.015625 -1.066406 0.835938 -1.179688 0.640625 -1.421875 C 0.453125 -1.660156 0.285156 -2.078125 0.140625 -2.671875 C -0.00390625 -3.273438 -0.0625 -4.101562 -0.03125 -5.15625 C -0.03125 -5.257812 -0.03125 -5.390625 -0.03125 -5.546875 C -0.03125 -5.953125 -0.015625 -6.425781 0.015625 -6.96875 C 0.0546875 -7.519531 0.140625 -8.007812 0.265625 -8.4375 C 0.390625 -8.875 0.578125 -9.140625 0.828125 -9.234375 C 1.578125 -9.429688 1.984375 -9.160156 2.046875 -8.421875 C 2.046875 -8.203125 2.039062 -7.972656 2.03125 -7.734375 C 2.007812 -7.628906 2 -7.515625 2 -7.390625 C 1.988281 -7.054688 1.972656 -6.726562 1.953125 -6.40625 C 1.953125 -6.113281 1.941406 -5.835938 1.921875 -5.578125 C 1.921875 -5.398438 1.921875 -5.140625 1.921875 -4.796875 C 1.941406 -4.316406 1.945312 -3.796875 1.9375 -3.234375 C 1.925781 -2.671875 1.863281 -2.179688 1.75 -1.765625 C 1.632812 -1.347656 1.441406 -1.117188 1.171875 -1.078125 Z M 1.890625 -11.75 C 1.804688 -11.65625 1.679688 -11.59375 1.515625 -11.5625 C 1.359375 -11.539062 1.238281 -11.554688 1.15625 -11.609375 C 1.0625 -11.703125 1 -11.800781 0.96875 -11.90625 C 0.945312 -12.019531 0.9375 -12.148438 0.9375 -12.296875 C 0.945312 -12.335938 0.953125 -12.375 0.953125 -12.40625 C 0.972656 -12.550781 1.007812 -12.695312 1.0625 -12.84375 C 1.226562 -13.25 1.554688 -13.425781 2.046875 -13.375 C 2.222656 -13.351562 2.359375 -13.28125 2.453125 -13.15625 C 2.546875 -13.03125 2.570312 -12.890625 2.53125 -12.734375 C 2.414062 -12.359375 2.203125 -12.03125 1.890625 -11.75 Z M 1.890625 -11.75 "/></g></g></g><g fill="#ef0454" fill-opacity="1"><g transform="translate(146.978321, 51.478725)"><g><path d="M 7.75 -5.8125 C 7.90625 -6.132812 8.007812 -6.28125 8.0625 -6.25 C 8.125 -6.226562 8.140625 -6.101562 8.109375 -5.875 C 8.078125 -5.644531 8.023438 -5.382812 7.953125 -5.09375 C 7.847656 -4.644531 7.664062 -4.125 7.40625 -3.53125 C 7.144531 -2.945312 6.859375 -2.414062 6.546875 -1.9375 C 6.078125 -1.28125 5.492188 -0.78125 4.796875 -0.4375 C 4.109375 -0.101562 3.484375 -0.0195312 2.921875 -0.1875 C 2.359375 -0.363281 2.03125 -0.894531 1.9375 -1.78125 C 1.925781 -2.53125 1.992188 -3.347656 2.140625 -4.234375 C 2.179688 -4.609375 2.234375 -4.972656 2.296875 -5.328125 C 2.296875 -5.460938 2.257812 -5.5625 2.1875 -5.625 C 2.125 -5.695312 2.039062 -5.722656 1.9375 -5.703125 C 1.863281 -5.703125 1.785156 -5.703125 1.703125 -5.703125 C 1.253906 -5.628906 0.800781 -5.640625 0.34375 -5.734375 C -0.207031 -5.890625 -0.523438 -6.160156 -0.609375 -6.546875 C -0.703125 -6.929688 -0.695312 -7.4375 -0.59375 -8.0625 C -0.539062 -8.507812 -0.375 -8.84375 -0.09375 -9.0625 C 0.175781 -9.289062 0.5 -9.382812 0.875 -9.34375 C 1.394531 -9.289062 1.644531 -9.085938 1.625 -8.734375 C 1.613281 -8.390625 1.519531 -8.019531 1.34375 -7.625 C 1.175781 -7.289062 1.085938 -7.015625 1.078125 -6.796875 C 1.066406 -6.578125 1.257812 -6.5 1.65625 -6.5625 C 1.738281 -6.582031 1.832031 -6.609375 1.9375 -6.640625 C 2.082031 -6.703125 2.25 -6.753906 2.4375 -6.796875 C 2.625 -6.835938 2.867188 -6.847656 3.171875 -6.828125 C 3.523438 -6.804688 3.757812 -6.640625 3.875 -6.328125 C 4 -6.015625 4.050781 -5.625 4.03125 -5.15625 C 4.019531 -4.6875 3.976562 -4.210938 3.90625 -3.734375 C 3.8125 -3.117188 3.765625 -2.59375 3.765625 -2.15625 C 3.765625 -1.726562 3.890625 -1.476562 4.140625 -1.40625 C 4.472656 -1.320312 4.96875 -1.625 5.625 -2.3125 C 6.289062 -3.007812 7 -4.175781 7.75 -5.8125 Z M 7.75 -5.8125 "/></g></g></g><g fill="#ef0454" fill-opacity="1"><g transform="translate(154.412705, 51.478725)"><g><path d="M 17.953125 -7.015625 C 18.097656 -7.210938 18.25 -7.351562 18.40625 -7.4375 C 18.570312 -7.53125 18.671875 -7.53125 18.703125 -7.4375 C 18.734375 -7.351562 18.644531 -7.140625 18.4375 -6.796875 C 17.957031 -6.085938 17.253906 -5.410156 16.328125 -4.765625 C 15.398438 -4.128906 14.375 -3.582031 13.25 -3.125 C 12.132812 -2.675781 11.039062 -2.378906 9.96875 -2.234375 C 8.90625 -2.085938 8 -2.15625 7.25 -2.4375 C 6.507812 -2.726562 6.050781 -3.289062 5.875 -4.125 C 5.25 -3.113281 4.507812 -2.320312 3.65625 -1.75 C 2.800781 -1.1875 1.992188 -0.945312 1.234375 -1.03125 C 0.359375 -1.15625 -0.222656 -1.484375 -0.515625 -2.015625 C -0.804688 -2.546875 -0.90625 -3.160156 -0.8125 -3.859375 C -0.71875 -4.554688 -0.507812 -5.21875 -0.1875 -5.84375 C 0.0625 -6.320312 0.40625 -6.765625 0.84375 -7.171875 C 1.289062 -7.585938 1.757812 -7.910156 2.25 -8.140625 C 2.851562 -8.441406 3.457031 -8.578125 4.0625 -8.546875 C 4.675781 -8.523438 5.332031 -8.328125 6.03125 -7.953125 C 6.03125 -7.953125 6.039062 -7.96875 6.0625 -8 C 6.0625 -8.070312 6.070312 -8.15625 6.09375 -8.25 C 6.125 -8.351562 6.1875 -8.441406 6.28125 -8.515625 C 6.40625 -8.597656 6.5625 -8.664062 6.75 -8.71875 C 6.9375 -8.78125 7.117188 -8.789062 7.296875 -8.75 C 7.578125 -8.695312 7.753906 -8.554688 7.828125 -8.328125 C 7.898438 -8.097656 7.910156 -7.84375 7.859375 -7.5625 C 7.816406 -7.289062 7.769531 -7.054688 7.71875 -6.859375 C 7.707031 -6.816406 7.703125 -6.78125 7.703125 -6.75 C 7.410156 -5.570312 7.515625 -4.75 8.015625 -4.28125 C 8.515625 -3.8125 9.238281 -3.59375 10.1875 -3.625 C 11.144531 -3.664062 12.15625 -3.863281 13.21875 -4.21875 C 14.289062 -4.582031 15.265625 -5.019531 16.140625 -5.53125 C 17.015625 -6.039062 17.617188 -6.535156 17.953125 -7.015625 Z M 1.578125 -2.609375 C 1.953125 -2.359375 2.351562 -2.382812 2.78125 -2.6875 C 3.207031 -2.988281 3.625 -3.425781 4.03125 -4 C 4.445312 -4.570312 4.785156 -5.140625 5.046875 -5.703125 C 5.316406 -6.273438 5.46875 -6.707031 5.5 -7 C 4.65625 -7.457031 3.925781 -7.535156 3.3125 -7.234375 C 2.707031 -6.941406 2.234375 -6.472656 1.890625 -5.828125 C 1.554688 -5.179688 1.363281 -4.539062 1.3125 -3.90625 C 1.257812 -3.269531 1.347656 -2.835938 1.578125 -2.609375 Z M 1.578125 -2.609375 "/></g></g></g></svg>