<svg xmlns="http://www.w3.org/2000/svg" viewBox="0 0 891.95 500.33"><defs><style>.cls-1,.cls-2{fill:#ef0454;}.cls-2{font-size:383px;font-family:Impact;}.cls-3{font-size:74px;fill:#fff;font-family:Mont-ExtraLightDEMO, Mont;font-weight:200;letter-spacing:0.03em;}.cls-4{letter-spacing:0.04em;}.cls-5{letter-spacing:0.03em;}</style></defs><g id="Layer_2" data-name="Layer 2"><g id="Layer_10_Image" data-name="Layer 10 Image"><path class="cls-1" d="M96.91,98a145.4,145.4,0,0,1,17.18-7.67v-19A165.15,165.15,0,0,0,96.91,78Z"/><path class="cls-1" d="M129.69,119.58a113.46,113.46,0,0,1,17.84-4.29V103.55a125.11,125.11,0,0,0-17.84,3.85Z"/><path class="cls-1" d="M114.09,126V113.13a124.65,124.65,0,0,0-17.18,9.3v14.12A114.23,114.23,0,0,1,114.09,126Z"/><path class="cls-1" d="M129.69,67.11V85.53a145.69,145.69,0,0,1,17.84-3.26V64.21A163.77,163.77,0,0,0,129.69,67.11Z"/><path class="cls-1" d="M114.09,330.82a114.23,114.23,0,0,1-17.18-10.56v14.12a124.65,124.65,0,0,0,17.18,9.3Z"/><path class="cls-1" d="M39,228.41A125.84,125.84,0,0,0,80.66,322V305.57a114.24,114.24,0,0,1,0-154.33V134.85A125.84,125.84,0,0,0,39,228.41Z"/><path class="cls-1" d="M162.47,102.36V114c.89,0,1.77-.07,2.66-.07A114.88,114.88,0,0,1,181,115.05V103.32a127.16,127.16,0,0,0-15.83-1C164.24,102.3,163.36,102.34,162.47,102.36Z"/><path class="cls-1" d="M114.09,385.46v-19a145.4,145.4,0,0,1-17.18-7.67v20A165.15,165.15,0,0,0,114.09,385.46Z"/><path class="cls-1" d="M195.25,66V84.31a147.59,147.59,0,0,1,19.14,5.38V70.77A164.61,164.61,0,0,0,195.25,66Z"/><path class="cls-1" d="M214.39,125.09V112.32A124.86,124.86,0,0,0,195.25,106v12A114.21,114.21,0,0,1,214.39,125.09Z"/><path class="cls-1" d="M228,324v13.66a126.6,126.6,0,0,0,19.79-14.14V307.44A115.35,115.35,0,0,1,228,324Z"/><path class="cls-1" d="M228,119.17v13.66a115.35,115.35,0,0,1,19.79,16.54V133.31A126.6,126.6,0,0,0,228,119.17Z"/><path class="cls-1" d="M181,353.49V341.76a114.88,114.88,0,0,1-15.83,1.12c-.89,0-1.77-.05-2.66-.07v11.64c.89,0,1.77.07,2.66.07A127.15,127.15,0,0,0,181,353.49Z"/><path class="cls-1" d="M162.47,81.24c.89,0,1.77,0,2.67,0a147.74,147.74,0,0,1,15.82.85V64q-7.82-.75-15.82-.76c-.9,0-1.78,0-2.67,0Z"/><path class="cls-1" d="M228,75.73V95.34a147.6,147.6,0,0,1,19.79,11.35V85.51A163.84,163.84,0,0,0,228,75.73Z"/><path class="cls-1" d="M260.81,146.4v19.28a114.09,114.09,0,0,1,0,125.45v19.28a125.71,125.71,0,0,0,0-164Z"/><path class="cls-1" d="M80.66,348.88a147.07,147.07,0,0,1,0-240.95V86.57a165,165,0,0,0,0,283.68Z"/><path class="cls-1" d="M181,374.75a147.74,147.74,0,0,1-15.82.85c-.9,0-1.78,0-2.67,0v17.94c.89,0,1.77,0,2.67,0q8,0,15.82-.76Z"/><path class="cls-1" d="M247.82,350.12A147.6,147.6,0,0,1,228,361.47v19.61a162.38,162.38,0,0,0,19.79-9.78Z"/><path class="cls-1" d="M129.69,337.23v12.18a125.11,125.11,0,0,0,17.84,3.85V341.52A113.46,113.46,0,0,1,129.69,337.23Z"/><path class="cls-1" d="M260.81,93.89v22.75a147,147,0,0,1,0,223.53v22.75a165,165,0,0,0,0-269Z"/><path class="cls-1" d="M214.39,331.72a113.34,113.34,0,0,1-19.14,7.11v12a124.86,124.86,0,0,0,19.14-6.36Z"/><path class="cls-1" d="M147.53,374.55a147.63,147.63,0,0,1-17.84-3.27V389.7a163.77,163.77,0,0,0,17.84,2.9Z"/><path class="cls-1" d="M214.39,386V367.12a147.59,147.59,0,0,1-19.14,5.38v18.28A164.61,164.61,0,0,0,214.39,386Z"/><rect class="cls-1" x="85.49" width="6.6" height="456.81"/><rect class="cls-1" x="118.92" width="5.95" height="456.81"/><rect class="cls-1" x="152.35" width="5.3" height="456.81"/><rect class="cls-1" x="185.78" width="4.65" height="456.81"/><rect class="cls-1" x="219.21" width="4" height="456.81"/><rect class="cls-1" x="252.64" width="3.35" height="456.81"/><rect class="cls-1" x="62.35" y="456.48" width="216.78" height="17.77"/><rect class="cls-1" x="62.35" y="479.01" width="216.78" height="10.01"/><text class="cls-2" transform="translate(402.62 373.73)">5S</text><text class="cls-3" transform="translate(333.63 474.25)">5<tspan class="cls-4" x="40.03" y="0">TH</tspan><tspan class="cls-5" x="139.27" y="0">S</tspan><tspan class="cls-4" x="184.63" y="0">TRINGINC</tspan></text></g></g></svg>